PathFileType	4	(X/Y/Z)	S01_0001_Static_markers.trc
DataRate	CameraRate	NumFrames	NumMarkers	Units	OrigDataRate	OrigDataStartFrame	OrigNumFrames
250.000000	250.000000	4	62	mm	250.000000	51	102
Frame#	Time	HEAD_ANT			R_HEAD			L_HEAD			C7			R_BACK			L_BACK			STERNUM			R_ACROMION			R_HUM_PROX			R_HUM_ANT			R_HUM_POST			R_ELBOW_LAT			R_ELBOW_MED			R_FOREARM			R_WIRST_LAT			R_WRITS_MED			R_HAND			L_ACROMION			L_HUM_PROX			L_HUM_ANT			L_HUM_POST			L_ELBOW_LAT			L_ELBOW_MED			L_FOREARM			L_WRIST_LAT			L_WIRST_MED			L_HAND			R_ILIAC			SACRUM			L_ILIAC			R_GTROCH			R_THIGH__1			R_THIGH_2			R_THIGH_3			R_THIGH_4			R_KNEE_LAT			R_KNEE_MED			R_SHANK_1			R_SHANK_2			R_SHANK_3			R_SHANK_4			R_ANKLE_LAT			R_ANKLE_MED			R_HEEL			R_FOOT_LAT			R_FOOT_MED			L_GTROCH			L_THIGH_1			L_THIGH_2			L_THIGH_3			L_THIGH_4			L_KNEE_LAT			L_KNEE_MED			L_SHANK_1			L_SHANK_2			L_SHANK_3			L_SHANK_4			L_ANKLE_LAT			L_ANKLE_MED			L_HEEL			L_FOOT_LAT			L_FOOT_MED			
		X1	Y1	Z1	X2	Y2	Z2	X3	Y3	Z3	X4	Y4	Z4	X5	Y5	Z5	X6	Y6	Z6	X7	Y7	Z7	X8	Y8	Z8	X9	Y9	Z9	X10	Y10	Z10	X11	Y11	Z11	X12	Y12	Z12	X13	Y13	Z13	X14	Y14	Z14	X15	Y15	Z15	X16	Y16	Z16	X17	Y17	Z17	X18	Y18	Z18	X19	Y19	Z19	X20	Y20	Z20	X21	Y21	Z21	X22	Y22	Z22	X23	Y23	Z23	X24	Y24	Z24	X25	Y25	Z25	X26	Y26	Z26	X27	Y27	Z27	X28	Y28	Z28	X29	Y29	Z29	X30	Y30	Z30	X31	Y31	Z31	X32	Y32	Z32	X33	Y33	Z33	X34	Y34	Z34	X35	Y35	Z35	X36	Y36	Z36	X37	Y37	Z37	X38	Y38	Z38	X39	Y39	Z39	X40	Y40	Z40	X41	Y41	Z41	X42	Y42	Z42	X43	Y43	Z43	X44	Y44	Z44	X45	Y45	Z45	X46	Y46	Z46	X47	Y47	Z47	X48	Y48	Z48	X49	Y49	Z49	X50	Y50	Z50	X51	Y51	Z51	X52	Y52	Z52	X53	Y53	Z53	X54	Y54	Z54	X55	Y55	Z55	X56	Y56	Z56	X57	Y57	Z57	X58	Y58	Z58	X59	Y59	Z59	X60	Y60	Z60	X61	Y61	Z61	X62	Y62	Z62	

52	0.204	437.930908203125	449.9379577636719	1740.705078125	508.4966430664062	382.0457458496094	1699.451171875	362.2538757324219	394.8208618164062	1700.909912109375	424.8895874023438	242.6377105712891	1533.85205078125	493.4817504882812	170.0606842041016	1336.95458984375	353.158935546875	173.7394104003906	1337.685668945312	438.1961669921875	420.9367370605469	1374.09423828125	597.1790771484375	308.4963073730469	1493.748291015625	703.7183837890625	264.3429260253906	1351.747680664062	734.8779907226562	328.8721313476562	1274.62353515625	721.5923461914062	207.1075134277344	1267.283447265625	758.6939697265625	257.7166442871094	1170.92333984375	678.9689331054688	253.0022583007812	1149.426879882812	828.3720703125	350.4334411621094	998.5790405273438	821.2447509765625	397.6444702148438	931.8961791992188	834.0145263671875	321.5114440917969	907.56201171875	881.2359619140625	384.7146911621094	849.7855834960938	263.6993103027344	322.48291015625	1492.584838867188	162.9997100830078	292.1039428710938	1332.727783203125	147.7788848876953	357.4356384277344	1256.224975585938	142.2756958007812	235.1888885498047	1253.901611328125	114.824104309082	286.712890625	1155.632568359375	183.2471008300781	255.5823364257812	1146.26025390625	68.81295776367188	389.5994873046875	985.0538940429688	95.38512420654297	438.0791625976562	918.747802734375	55.05786514282227	370.9885864257812	903.9552001953125	32.91852569580078	442.5331726074219	847.5943603515625	604.3924560546875	321.7181396484375	1082.009521484375	433.7150573730469	189.3291168212891	1061.921875	258.5934753417969	319.0488586425781	1075.81884765625	613.3357543945312	264.7560729980469	942.1834716796875	616.8687133789062	272.7082214355469	664.0195922851562	622.629150390625	330.4793701171875	674.3609008789062	595.6244506835938	325.9425048828125	570.533935546875	601.2967529296875	261.9879455566406	583.5243530273438	589.2783203125	299.7277526855469	508.8587951660156	478.2015991210938	302.2422180175781	506.7783508300781	621.747314453125	239.1132202148438	353.3708801269531	607.539306640625	294.7648620605469	332.1031494140625	593.6138916015625	292.0203857421875	246.6774444580078	603.03173828125	227.8198699951172	252.951171875	581.5872802734375	252.9812316894531	65.98047637939453	496.057861328125	275.1529235839844	80.85991668701172	527.71240234375	194.1684112548828	41.96812057495117	628.7996826171875	352.2580871582031	19.95833206176758	532.5042114257812	415.0478820800781	30.1302433013916	253.8635711669922	272.4363098144531	965.3934326171875	251.3715515136719	324.0004272460938	674.3096923828125	238.3829040527344	272.16064453125	700.8367919921875	264.509765625	248.5977630615234	600.7315063476562	270.7081909179688	311.6237487792969	595.6424560546875	282.6571350097656	269.26904296875	514.0396728515625	390.17333984375	273.2731628417969	501.5378112792969	255.5049285888672	249.6540679931641	338.9991149902344	257.8095703125	192.4613037109375	318.0870666503906	268.0009155273438	191.9463348388672	231.1898498535156	269.4469909667969	256.4233703613281	236.7326049804688	276.4106140136719	217.2865142822266	69.20974731445312	361.175537109375	243.5435333251953	79.48672485351562	329.283935546875	160.9280548095703	41.1878662109375	233.7172088623047	328.10986328125	19.22708702087402	335.7118225097656	376.7442016601562	27.03861808776855	
53	0.208	437.85205078125	449.8721008300781	1740.731811523438	508.4200744628906	381.9702758789062	1699.469482421875	362.1335144042969	394.7224426269531	1700.91650390625	424.8721313476562	242.5839691162109	1533.7900390625	493.4717407226562	170.049072265625	1336.9189453125	353.1387329101562	173.7441558837891	1337.635620117188	438.12158203125	420.9503784179688	1374.06640625	597.1185913085938	308.4772033691406	1493.750854492188	703.6781616210938	264.4093017578125	1351.775268554688	734.8353881835938	328.9220275878906	1274.6748046875	721.5913696289062	207.1175537109375	1267.29931640625	758.6898193359375	257.7282104492188	1170.958740234375	678.9568481445312	253.0193176269531	1149.453247070312	828.3567504882812	350.5149536132812	998.585693359375	821.1455078125	397.732177734375	931.9292602539062	833.9846801757812	321.6235961914062	907.5848999023438	881.2301025390625	384.8356628417969	849.8744506835938	263.6546630859375	322.4630432128906	1492.564819335938	162.7579345703125	292.1974182128906	1332.781982421875	147.7424011230469	357.4296875	1256.215454101562	142.21875	235.1812438964844	1253.874755859375	114.8149795532227	286.5918579101562	1155.6201171875	183.2088623046875	255.6319274902344	1146.255249023438	68.79123687744141	389.5876770019531	985.037353515625	95.36650085449219	438.0654296875	918.743408203125	55.0401725769043	371.0056457519531	903.9151611328125	32.91264724731445	442.532958984375	847.5689086914062	604.374755859375	321.7737731933594	1082.010620117188	433.6535949707031	189.3582916259766	1061.91748046875	258.5827941894531	319.1421813964844	1075.790405273438	613.3076171875	264.7549438476562	942.2002563476562	616.8462524414062	272.7328491210938	664.026123046875	622.5902099609375	330.5126037597656	674.3455200195312	595.5983276367188	325.9968566894531	570.5015258789062	601.2677001953125	262.0135192871094	583.516845703125	589.2951049804688	299.7761535644531	508.8930358886719	478.1826782226562	302.1940612792969	506.72900390625	621.7385864257812	239.1647796630859	353.3904724121094	607.4945678710938	294.8090515136719	332.072509765625	593.5629272460938	292.0239868164062	246.6680145263672	603.0281372070312	227.8270263671875	252.9793701171875	581.5668334960938	252.9780120849609	65.97557067871094	496.0156555175781	275.160400390625	80.85344696044922	527.731201171875	194.1853790283203	41.94681930541992	628.7929077148438	352.2752685546875	19.94804000854492	532.4857788085938	415.0805358886719	30.13637161254883	253.8418731689453	272.5032653808594	965.3850708007812	251.3588714599609	324.0353698730469	674.3147583007812	238.3968811035156	272.2239379882812	700.8179931640625	264.5184020996094	248.6379089355469	600.7348022460938	270.6892700195312	311.66015625	595.6222534179688	282.652587890625	269.2921447753906	514.0157470703125	390.1606750488281	273.2868957519531	501.5299072265625	255.5115509033203	249.6584167480469	338.9955444335938	257.8131713867188	192.4936981201172	318.0697937011719	267.9925231933594	192.0002288818359	231.1827545166016	269.4289245605469	256.4240112304688	236.7259216308594	276.40380859375	217.2748870849609	69.21621704101562	361.1605529785156	243.5620269775391	79.47406768798828	329.2571716308594	160.9355621337891	41.21006393432617	233.704833984375	328.0868225097656	19.24547958374023	335.7155151367188	376.7573547363281	27.03226089477539	
54	0.212	437.7409057617188	449.8230590820312	1740.80126953125	508.3134460449219	381.9925842285156	1699.486328125	362.0635681152344	394.6039428710938	1700.92724609375	424.8043518066406	242.5720520019531	1533.813354492188	493.42236328125	170.0544738769531	1336.916870117188	353.1162414550781	173.7382659912109	1337.640502929688	438.1253356933594	420.9251708984375	1374.089721679688	597.079345703125	308.439453125	1493.770874023438	703.6458740234375	264.4047546386719	1351.772827148438	734.7880249023438	328.9555053710938	1274.689697265625	721.57666015625	207.160888671875	1267.28662109375	758.6602783203125	257.8080444335938	1170.951293945312	678.938232421875	253.1417694091797	1149.388549804688	828.3448486328125	350.5909729003906	998.6278076171875	821.2268676757812	397.8089294433594	931.983154296875	833.9904174804688	321.7249755859375	907.61669921875	881.2348022460938	384.960693359375	849.9099731445312	263.6248168945312	322.4223022460938	1492.548461914062	162.9362030029297	292.0758056640625	1332.708618164062	147.7286834716797	357.4432983398438	1256.1865234375	142.1726531982422	235.1829528808594	1253.8671875	114.7557983398438	286.6629333496094	1155.618530273438	183.1956634521484	255.6284332275391	1146.23046875	68.75392150878906	389.5799560546875	985.01123046875	95.388671875	438.0595092773438	918.7236938476562	55.04134368896484	371.0133666992188	903.8948974609375	32.88933944702148	442.5574645996094	847.5556030273438	604.3467407226562	321.7674865722656	1082.020385742188	433.6656188964844	189.4178314208984	1061.899658203125	258.5567626953125	319.1417846679688	1075.789672851562	613.2722778320312	264.8197326660156	942.205078125	616.8244018554688	272.7834777832031	664.0610961914062	622.5829467773438	330.5743713378906	674.33935546875	595.5907592773438	325.9841613769531	570.5216674804688	601.267333984375	262.0414428710938	583.50390625	589.2432861328125	299.7721862792969	508.8540649414062	478.1421508789062	302.2630615234375	506.6970520019531	621.7210693359375	239.1875305175781	353.4188842773438	607.5057373046875	294.8090515136719	332.0596008300781	593.5687866210938	292.0224609375	246.6872711181641	603.025146484375	227.8368377685547	252.9911651611328	581.552490234375	252.9890289306641	65.97894287109375	496.0007019042969	275.10302734375	80.81809997558594	527.7341918945312	194.1689147949219	41.97345352172852	628.7940063476562	352.2548522949219	19.96743392944336	532.514892578125	415.073486328125	30.14645385742188	253.7870178222656	272.57177734375	965.3757934570312	251.3429870605469	324.0673217773438	674.2921752929688	238.4100036621094	272.2638549804688	700.8381958007812	264.4776306152344	248.6927795410156	600.7135620117188	270.683837890625	311.6880187988281	595.6093139648438	282.6461791992188	269.33837890625	513.9820556640625	390.1358337402344	273.3257141113281	501.5619812011719	255.455078125	249.6841278076172	338.9950561523438	257.7937927246094	192.5178985595703	318.0547790527344	267.9861755371094	191.9913787841797	231.19140625	269.3930969238281	256.4363403320312	236.7352600097656	276.4380187988281	217.2891235351562	69.18007659912109	361.1784973144531	243.5178527832031	79.5194091796875	329.2738342285156	160.9324188232422	41.20211791992188	233.7236022949219	328.078125	19.22465705871582	335.7281188964844	376.7538146972656	27.00337791442871	
55	0.216	437.6642456054688	449.7595520019531	1740.851684570312	508.2203063964844	381.8720092773438	1699.530151367188	362.0012817382812	394.5618896484375	1700.9140625	424.7501831054688	242.5607757568359	1533.818359375	493.3934631347656	170.1047515869141	1336.8798828125	353.0693664550781	173.74658203125	1337.587036132812	438.0478210449219	420.9121704101562	1374.091552734375	597.0291748046875	308.4497680664062	1493.773193359375	703.6206665039062	264.4113159179688	1351.808837890625	734.7861938476562	328.9724731445312	1274.68896484375	721.544677734375	207.1859130859375	1267.304809570312	758.6693115234375	257.8658142089844	1170.98681640625	678.9547119140625	253.1273651123047	1149.435180664062	828.3494873046875	350.6427001953125	998.6388549804688	821.1823120117188	397.9167175292969	932.0570068359375	833.9934692382812	321.8311462402344	907.6287841796875	881.2465209960938	385.054931640625	849.9590454101562	263.5669250488281	322.385009765625	1492.539306640625	162.9099426269531	292.0881042480469	1332.675537109375	147.7327575683594	357.4526977539062	1256.188598632812	142.1320495605469	235.2124633789062	1253.85205078125	114.7578735351562	286.6729736328125	1155.585083007812	183.1851348876953	255.6147766113281	1146.204467773438	68.76750946044922	389.6077575683594	984.9842529296875	95.35643768310547	438.0619506835938	918.6990966796875	55.01547241210938	371.024658203125	903.8738403320312	32.87419891357422	442.5685119628906	847.5411987304688	604.322021484375	321.7783813476562	1082.01904296875	433.613037109375	189.4429016113281	1061.892700195312	258.5013427734375	319.1621704101562	1075.789184570312	613.2384643554688	264.8382568359375	942.1928100585938	616.8140869140625	272.8421630859375	664.0465698242188	622.5757446289062	330.5535583496094	674.3521118164062	595.5659790039062	326.0474548339844	570.4822387695312	601.2349243164062	262.0853881835938	583.4805297851562	589.218994140625	299.8365783691406	508.8685607910156	478.1260681152344	302.3400573730469	506.6858825683594	621.681396484375	239.1938171386719	353.3851318359375	607.4933471679688	294.8160400390625	332.0594482421875	593.5476684570312	292.0295104980469	246.6622619628906	602.992431640625	227.8358917236328	252.9603271484375	581.5355834960938	252.9909057617188	65.98783874511719	496.0205383300781	275.1567993164062	80.85687255859375	527.720703125	194.1752319335938	41.97158050537109	628.7955932617188	352.2655334472656	19.94449424743652	532.492919921875	415.074951171875	30.15372467041016	253.7799072265625	272.6066589355469	965.373046875	251.378173828125	324.1289978027344	674.2615356445312	238.3460845947266	272.3448486328125	700.8458251953125	264.4339904785156	248.7255859375	600.7308349609375	270.6726684570312	311.75341796875	595.6157836914062	282.6231384277344	269.3248596191406	513.9872436523438	390.12353515625	273.314453125	501.536865234375	255.4558715820312	249.7053985595703	338.9779357910156	257.8114624023438	192.5425109863281	318.0776977539062	268.0032348632812	191.9908599853516	231.1505279541016	269.4396362304688	256.4671325683594	236.6974487304688	276.4580688476562	217.2838745117188	69.17474365234375	361.1727600097656	243.5880432128906	79.49140167236328	329.27783203125	160.9254913330078	41.20088577270508	233.7304534912109	328.0974731445312	19.23381423950195	335.7254333496094	376.7824401855469	27.03423118591309	
